PathFileType	4	(X/Y/Z)	C:\Users\Basilio\Documents\Thesis Gigler\squatting_fais\c3dfiles\038\SJ_pre5\markers_experimental.trc
DataRate	CameraRate	NumFrames	NumMarkers	Units	OrigDataRate	OrigDataStartFrame	OrigNumFrames
200.000000	200.000000	4	61	mm	200.000000	1132	1510
Frame#	Time	FHD			LBHD			RBHD			C7			T10			CLAV			LSHO			LUUPA			LMUPA			LDUPA			LLEP			LMEP			LRAD			LUL			LRFIN			RSHO			RUPA1			RMUPA			RDUPA			RLEP			RMEP			RRAD			RUL			RUFIN			LASI			RASI			USACR			LSACR			RSACR			LTHI1			LTHI2			LTHI3			LTHI4			LLFC			LMFC			LTIB1			LTIB2			LTIB3			LTIB4			LLMAL			LMMAL			LHEE			LMT1			LMT2			LMT5			RTHI			RTHI2			RTHI3			RTHI4			RLFC			RMFC			RTIB1			RTIB2			RTIB3			RTIB4			RLMAL			RMMAL			RHEE			RMT1			RMT2			RMT5			
		X1	Y1	Z1	X2	Y2	Z2	X3	Y3	Z3	X4	Y4	Z4	X5	Y5	Z5	X6	Y6	Z6	X7	Y7	Z7	X8	Y8	Z8	X9	Y9	Z9	X10	Y10	Z10	X11	Y11	Z11	X12	Y12	Z12	X13	Y13	Z13	X14	Y14	Z14	X15	Y15	Z15	X16	Y16	Z16	X17	Y17	Z17	X18	Y18	Z18	X19	Y19	Z19	X20	Y20	Z20	X21	Y21	Z21	X22	Y22	Z22	X23	Y23	Z23	X24	Y24	Z24	X25	Y25	Z25	X26	Y26	Z26	X27	Y27	Z27	X28	Y28	Z28	X29	Y29	Z29	X30	Y30	Z30	X31	Y31	Z31	X32	Y32	Z32	X33	Y33	Z33	X34	Y34	Z34	X35	Y35	Z35	X36	Y36	Z36	X37	Y37	Z37	X38	Y38	Z38	X39	Y39	Z39	X40	Y40	Z40	X41	Y41	Z41	X42	Y42	Z42	X43	Y43	Z43	X44	Y44	Z44	X45	Y45	Z45	X46	Y46	Z46	X47	Y47	Z47	X48	Y48	Z48	X49	Y49	Z49	X50	Y50	Z50	X51	Y51	Z51	X52	Y52	Z52	X53	Y53	Z53	X54	Y54	Z54	X55	Y55	Z55	X56	Y56	Z56	X57	Y57	Z57	X58	Y58	Z58	X59	Y59	Z59	X60	Y60	Z60	X61	Y61	Z61	

1133	5.66	-185.0142974853516	1693.483764648438	-929.4389648437502	-303.7453308105469	1571.491821289063	-974.3480224609377	-278.7080383300782	1572.589233398438	-830.4055175781252	-318.3076477050782	1444.316040039063	-884.6010742187502	-369.6782226562501	1163.701416015625	-866.8271484375002	-176.5958404541016	1402.101196289063	-917.551452636719	-236.8065948486329	1441.095947265625	-1077.890014648438	-295.3195800781251	1268.499755859375	-1244.224853515625	-256.4405517578126	1237.6904296875	-1233.436401367188	-286.5771484375001	1206.567260742188	-1275.336791992188	-279.7877197265626	1143.2265625	-1290.836181640625	-357.6538085937501	1125.788208007813	-1269.026977539063	-291.8397216796876	923.2590332031252	-1096.489868164063	-241.1958923339844	889.1456298828127	-1136.64453125	-263.4815368652344	913.4371337890627	-1032.596069335938	-167.0455322265625	1437.552856445313	-748.8393554687501	-136.9670715332032	1266.372436523438	-592.8512573242189	-127.0663604736328	1223.281372070313	-613.4686279296876	-134.2292175292969	1206.266845703125	-557.1937866210939	-131.7777252197266	1132.345825195313	-535.7859497070314	-212.3519134521485	1129.0439453125	-512.8322143554689	-230.0623168945313	902.9812622070315	-658.4998168945314	-166.2489318847657	871.724304199219	-643.8400878906251	-207.6674346923829	899.781188964844	-727.0334472656251	-266.0963745117188	953.1110839843752	-1000.565734863281	-230.9057922363282	960.0020141601565	-759.9230957031251	-407.4067993164064	1023.952026367188	-857.2821044921877	-428.7296752929689	995.6909179687502	-882.0403442382815	-416.2115783691407	995.103698730469	-825.560729980469	-268.4818725585938	675.0197753906251	-1124.32080078125	-217.1489257812501	610.0155639648439	-1147.12646484375	-171.0808563232422	626.0120239257814	-1136.60302734375	-224.8362579345704	551.4246215820314	-1135.061157226563	-211.4806823730469	497.950408935547	-1138.130126953125	-165.0430145263672	479.6612854003907	-1037.946044921875	-199.1687774658204	304.3917236328126	-1085.09228515625	-276.4001464843751	282.7354736328126	-1127.170166015625	-235.8446807861329	266.2813720703126	-1113.35888671875	-260.6048583984376	193.2743530273438	-1077.729248046875	-383.0948181152344	88.44700622558595	-1062.646728515625	-317.7750854492188	93.99228668212892	-1008.904296875	-410.8514709472657	44.71660995483399	-995.3389282226565	-219.5619201660157	46.89682388305665	-1087.308349609375	-238.0842285156251	49.5410614013672	-1134.7958984375	-296.0778198242188	31.00960922241212	-1159.844482421875	-237.2340545654297	706.3433227539064	-675.5558471679689	-186.9376525878907	663.1188964843751	-665.7786254882814	-154.8057250976563	673.5749511718751	-668.0071411132814	-191.1485748291016	577.5892944335939	-678.6776123046876	-146.8226928710938	463.6824035644532	-681.5088500976564	-142.7463836669922	462.3673095703126	-791.4476318359377	-156.8560180664063	287.5464782714844	-708.1446533203126	-261.6115112304688	242.0156250000001	-680.0604248046876	-217.0554962158204	227.8112335205079	-687.7951049804689	-224.6925811767579	178.0088653564453	-718.7232055664064	-335.8214721679688	92.88954925537111	-698.8660278320314	-295.6365661621094	90.48130798339845	-774.912048339844	-390.8226013183595	41.36397933959962	-770.5567016601565	-178.63232421875	47.52592086791993	-714.0570678710939	-191.6245269775391	51.80280685424806	-669.2178344726564	-242.8730621337891	34.70415115356446	-632.5639038085939	
1134	5.665	-186.2150573730469	1695.284423828125	-929.3803710937502	-305.0720520019532	1572.943603515625	-974.3533935546877	-279.6639099121094	1574.42724609375	-830.558044433594	-319.1850585937501	1445.642822265625	-884.5500488281252	-370.0537109375001	1165.146118164063	-866.8504638671877	-177.478988647461	1403.931030273438	-917.5983886718752	-237.5983428955079	1442.785522460938	-1078.034301757813	-296.3055114746094	1270.241088867188	-1244.165161132813	-257.1213073730469	1239.151733398438	-1233.462890625	-287.1991577148438	1208.209594726563	-1275.314453125	-280.2454833984376	1144.924438476563	-1290.797729492188	-358.0174255371094	1127.046875	-1268.938720703125	-291.5551757812501	924.676696777344	-1096.786010742188	-241.2924957275391	890.980407714844	-1137.006591796875	-263.2387084960938	915.0018310546877	-1032.878295898438	-168.2738189697266	1439.174926757813	-748.9232177734376	-138.1165313720703	1267.9560546875	-592.8388061523439	-127.7871856689453	1225.0654296875	-613.7678222656251	-135.2500762939453	1207.710571289063	-557.2562866210939	-132.5042572021485	1133.940307617188	-536.0150756835939	-212.8480987548829	1130.341552734375	-513.2253417968751	-229.0243225097657	904.8338012695315	-659.2597656250001	-166.3423767089844	873.2419433593752	-644.0549926757814	-207.2816619873047	901.5950927734377	-726.9954223632814	-266.0221252441407	954.6429443359377	-1000.700012207031	-230.7169799804688	961.587341308594	-760.0720825195314	-407.4341430664064	1025.384155273438	-857.4749145507815	-428.710174560547	996.8818969726565	-882.3023681640627	-416.1475524902345	996.3961181640627	-825.8236083984377	-269.3104553222657	676.0735473632814	-1124.086791992188	-218.1040191650391	610.5488281250001	-1146.810668945313	-172.1063537597657	626.5797119140626	-1136.395874023438	-226.1475372314454	552.2164306640626	-1134.598876953125	-212.8760833740235	498.5138244628907	-1137.693237304688	-166.3759765625	479.7149963378907	-1037.289184570313	-200.0294036865235	305.0148315429688	-1085.044311523438	-277.3181457519532	282.9711303710938	-1126.957641601563	-236.9464263916016	267.3148498535157	-1113.0771484375	-261.4799194335938	192.9208221435547	-1077.986938476563	-383.2642517089844	88.37985992431642	-1062.670532226563	-317.9435119628907	94.02526092529298	-1008.98046875	-410.9076232910157	44.72301101684571	-995.4130859375002	-219.6479797363282	46.89958953857423	-1087.374755859375	-238.1214904785157	49.53275299072267	-1134.7900390625	-296.1588134765626	31.02160072326661	-1159.897338867188	-237.8617858886719	707.3632812500001	-675.9223022460939	-187.377182006836	664.4002075195314	-665.7902221679689	-155.4789276123047	674.5115356445314	-668.1434936523439	-191.8617401123047	578.9261474609376	-678.5275268554689	-148.4991760253907	464.6017150878907	-681.6526489257814	-144.1007080078125	463.0601806640626	-791.700866699219	-157.8614654541016	288.1055908203126	-708.2841186523439	-262.3012695312501	242.3197021484376	-680.0936279296876	-217.7858428955079	228.2914733886719	-687.7754516601564	-225.2320556640626	178.3111419677735	-718.7832031250001	-335.9660339355469	92.87863159179689	-698.8726806640626	-295.7807922363282	90.50879669189455	-774.923278808594	-390.9058532714845	41.31753158569337	-770.5435180664065	-178.605224609375	47.55134201049805	-714.0259399414064	-191.6251678466797	51.84743118286134	-669.2324829101564	-242.9027709960938	34.72137451171876	-632.5845947265626	
1135	5.67	-187.4769744873047	1696.861450195313	-929.1749267578127	-306.2399291992188	1574.618530273438	-974.3786621093752	-280.7738342285157	1576.057739257813	-830.6386718750002	-320.1270446777344	1447.33837890625	-884.6959228515627	-370.4225158691407	1166.54345703125	-866.8955688476565	-178.4240264892578	1405.640380859375	-917.7102661132815	-239.1853027343751	1444.497924804688	-1077.830688476563	-296.9996948242188	1271.681030273438	-1244.096557617188	-257.7631225585938	1240.739501953125	-1233.387817382813	-287.6820983886719	1209.657104492188	-1275.307983398438	-281.0566711425782	1146.308715820313	-1290.493530273438	-358.8660583496094	1129.018798828125	-1268.807250976563	-291.4226684570313	926.1193847656252	-1096.924072265625	-241.0223846435547	892.4650878906252	-1136.995971679688	-263.0319213867188	916.4357910156252	-1033.116455078125	-169.3625183105469	1440.93603515625	-748.5803833007814	-138.9766998291016	1269.639404296875	-593.0757446289064	-128.8153686523438	1226.668701171875	-613.9650878906251	-136.1351928710938	1209.5166015625	-557.4949951171876	-133.3116760253907	1135.432250976563	-535.9162597656251	-213.8506927490235	1131.853271484375	-513.3780517578126	-229.7512359619141	905.699645996094	-658.9963378906251	-166.4127807617188	874.6796875000002	-644.1661376953126	-207.7794189453126	902.797790527344	-727.5542602539064	-265.5377197265626	956.4060668945315	-1001.161743164063	-231.3445434570313	962.8955078125002	-760.4537353515626	-407.3856201171876	1026.660034179688	-857.653747558594	-428.6181030273439	998.322937011719	-882.442810058594	-416.0968017578126	997.743347167969	-825.9816894531252	-269.9841918945313	677.1378173828126	-1123.849487304688	-219.2772064208985	611.2681884765626	-1146.481323242188	-173.3226470947266	627.1707153320314	-1136.305419921875	-226.8953399658204	552.5737915039064	-1134.15185546875	-214.2824401855469	498.8734436035157	-1137.345458984375	-167.4876861572266	480.728973388672	-1036.76904296875	-201.0127258300782	305.3467102050782	-1084.4951171875	-278.1046142578126	283.3261108398438	-1126.800048828125	-237.4194946289063	267.2598876953126	-1112.73388671875	-262.1143493652344	193.0744171142579	-1077.712158203125	-383.4302062988282	88.25604248046876	-1062.677978515625	-318.1156921386719	93.6835174560547	-1009.056762695313	-410.9036865234376	44.63692855834962	-995.4201660156252	-219.6744842529297	46.95421600341798	-1087.35693359375	-238.1687164306641	49.58010482788087	-1134.836669921875	-296.1357421875001	30.99960708618165	-1159.936401367188	-238.5861511230469	708.7285766601564	-676.2310791015626	-188.1561584472657	665.4716186523439	-666.0732421875001	-156.3038787841797	675.5128784179689	-668.4434814453126	-193.2561950683594	579.8186035156251	-679.1295166015626	-149.7975769042969	465.0972290039064	-682.0431518554689	-145.2448272705078	463.8049621582032	-791.8751220703127	-158.5549468994141	288.5653381347657	-708.4275512695314	-263.0511779785157	242.4358367919922	-680.1223144531251	-218.534164428711	228.6878509521485	-687.8794555664064	-225.4240112304688	178.1387023925782	-718.7223510742189	-336.1628417968751	92.89373016357423	-698.8623046875001	-295.9663391113282	90.49573516845705	-774.912292480469	-391.2622680664064	41.04690551757813	-770.6870727539065	-178.6438293457032	47.5483627319336	-714.0377197265626	-191.6499481201172	51.82660293579103	-669.2158203125001	-242.893295288086	34.72393798828126	-632.5568847656251	
1136	5.675	-188.5425567626953	1698.53857421875	-929.2631835937502	-307.2422180175782	1576.346923828125	-974.3244628906252	-282.0398254394532	1577.933715820313	-830.6143188476565	-321.3148803710938	1448.813232421875	-884.7330322265627	-370.7621154785157	1167.923095703125	-867.007263183594	-179.3602142333985	1407.504516601563	-917.8403930664065	-240.1124420166016	1446.201171875	-1077.9169921875	-297.7558288574219	1273.259033203125	-1244.050048828125	-258.4028930664063	1242.399780273438	-1233.40625	-288.5357666015626	1211.351440429688	-1275.179321289063	-281.2767028808594	1148.064208984375	-1290.6474609375	-359.2436523437501	1130.296508789063	-1268.659790039063	-291.1179199218751	927.3811035156252	-1097.199340820313	-240.7029571533204	894.1943969726565	-1137.449951171875	-262.8200683593751	917.762878417969	-1033.248168945313	-170.4745025634766	1442.63330078125	-748.5393066406251	-139.4909973144532	1271.498291015625	-592.9525146484376	-129.5005645751953	1228.283935546875	-613.9157714843751	-136.9796295166016	1210.870361328125	-557.3698120117189	-134.0490875244141	1137.392456054688	-536.0973510742189	-214.5136871337891	1133.198852539063	-513.5277709960939	-229.2527618408204	907.6973876953127	-659.6275634765626	-166.4908447265625	876.2811279296877	-644.5436401367189	-207.7654113769532	904.0809326171877	-727.8457031250001	-265.6653442382813	957.995300292969	-1001.196594238281	-230.5359344482422	964.754333496094	-760.1977539062501	-407.4529113769532	1028.0087890625	-857.8551025390627	-428.6666259765626	999.5378417968752	-882.6921386718752	-415.9645996093751	999.055358886719	-826.364929199219	-270.7747497558594	678.0968017578126	-1123.552856445313	-220.4103240966797	611.9526367187501	-1146.151489257813	-174.2382507324219	627.7303466796876	-1135.954345703125	-228.7639923095704	553.7870483398439	-1133.691772460938	-215.5928497314454	499.9432983398439	-1136.77783203125	-168.9114074707032	481.5534973144532	-1036.460083007813	-201.8142547607422	306.3210754394532	-1084.279174804688	-278.9088439941407	283.7532043457032	-1126.631958007813	-238.2731018066407	268.0095214843751	-1112.683837890625	-262.3457031250001	193.5648803710938	-1077.196044921875	-383.6279296875001	88.23821258544923	-1062.70556640625	-318.2480163574219	93.73595428466798	-1009.16064453125	-410.9651489257814	44.62517929077149	-995.4989013671877	-219.7233886718751	46.93073654174805	-1087.341430664063	-238.1936340332032	49.5702247619629	-1134.87841796875	-296.2123107910157	31.01951408386231	-1159.992065429688	-239.1678009033204	709.9569091796876	-676.3132324218751	-189.2090148925782	666.1759643554689	-666.4129028320314	-156.9958648681641	676.3562622070314	-668.5289306640626	-194.3036499023438	580.8753051757814	-679.3579711914064	-151.2771759033203	465.708709716797	-682.1771850585939	-146.5916137695313	464.4842529296876	-792.0804443359377	-159.4884948730469	289.1152343750001	-708.1981811523439	-263.7528686523438	242.7534332275391	-680.2280273437501	-218.9460906982422	229.0306091308594	-688.0690917968751	-225.9724578857422	178.4382781982422	-718.7919311523439	-336.2897033691407	92.86092376708986	-698.8584594726564	-296.1118774414063	90.5077590942383	-774.9627075195315	-391.3193969726564	40.94292068481446	-770.673767089844	-178.6935119628907	47.58786010742188	-714.0474243164064	-191.6866760253907	51.8461036682129	-669.2259521484376	-242.9021911621094	34.70840454101563	-632.5615234375001	
